<?xml version="1.0" standalone="no"?><!DOCTYPE svg PUBLIC "-//W3C//DTD SVG 1.1//EN" "http://www.w3.org/Graphics/SVG/1.1/DTD/svg11.dtd"><svg t="1510907128215" class="icon" style="" viewBox="0 0 1024 1024" version="1.1" xmlns="http://www.w3.org/2000/svg" p-id="687" xmlns:xlink="http://www.w3.org/1999/xlink" width="150" height="150"><defs><style type="text/css"></style></defs><path d="M666.56 371.072c157.824-13.376 289.6 16.064 293.376 65.664 2.432 31.872-48.96 64.384-128.064 87.296 46.976-24 73.984-51.392 71.232-76.672-5.44-53.056-143.424-78.4-306.752-55.488-63.36 8.576-155.072 33.6-202.368 51.392 49.344-29.44 171.2-63.68 272.576-72.192z" p-id="688" class="selected" fill="#d12f1a"></path><path d="M200.256 516.16v-0.64l0.32-0.32h-25.664l-15.36 79.36-5.888 29.504-5.76 29.056h25.344l21.504-109.888zM262.208 512.064a21.568 21.568 0 0 0-11.648 3.84 56.704 56.704 0 0 0-10.944 12.608l12.992-66.048h-25.664l-26.688 136.192v0.704l-5.504 27.072-5.184 26.688h23.616l4.16-20.16a46.72 46.72 0 0 0 5.44 17.472c3.072 4.032 6.848 5.76 10.944 5.76a16.64 16.64 0 0 0 5.824-1.024 26.56 26.56 0 0 0 10.24-7.168c5.184-5.824 10.304-14.464 14.72-26.048 4.8-11.264 8.512-24.64 11.648-39.68 4.416-22.592 5.184-40.064 2.432-52.352-3.008-12.032-8.512-17.856-16.384-17.856z m-11.584 71.232c-2.432 12.352-5.184 21.248-8.256 26.304-0.704 1.792-2.048 3.136-2.752 4.16-2.048 2.752-4.48 3.776-6.528 3.776-3.072 0-5.12-2.752-6.528-7.872-0.96-5.504-0.256-14.016 2.112-25.728 2.048-10.944 4.8-19.136 7.872-24.64 1.088-1.344 2.048-2.752 3.072-4.096 2.048-2.368 4.416-3.776 7.168-3.776s4.8 2.752 5.504 7.488c1.024 5.184 0.704 13.376-1.664 24.384zM115.008 536.704l6.464-33.152h41.472l8.192-41.088H101.312L64 653.12h28.416l15.04-77.696h35.264l7.552-38.72zM200.256 498.368h3.456l7.168-35.904h-25.344l-7.168 35.904h16.384zM325.888 597.312H358.4l1.344-6.208 2.112-11.904c0.32-3.072 1.024-5.824 1.024-8.96 1.344-8.896 1.728-16.768 1.344-23.232a68.992 68.992 0 0 0-1.344-9.92c0-1.728-0.704-3.392-1.024-5.12a40.384 40.384 0 0 0-5.12-10.944c-4.096-6.208-11.328-8.96-20.544-8.96a25.152 25.152 0 0 0-10.24 1.728c-7.616 2.688-14.784 8.896-21.312 18.176-9.216 13.376-15.744 30.784-19.84 52.352-3.072 15.04-4.096 28.416-3.072 39.744 1.088 11.328 3.776 19.456 7.552 24.64 4.096 5.12 10.624 7.488 19.136 7.488a36.16 36.16 0 0 0 24.96-8.896c6.528-5.824 13.056-15.744 19.52-29.824l-23.936-4.736a35.968 35.968 0 0 1-5.824 8.512c-2.752 2.816-5.44 4.096-7.872 4.096-4.096 0-6.848-3.072-7.872-8.896a60.8 60.8 0 0 1 0.32-19.2h18.176z m-6.528-44.096a28.224 28.224 0 0 1 6.528-8.256 9.536 9.536 0 0 1 5.12-1.664c3.456 0 5.824 2.048 7.168 6.528a63.616 63.616 0 0 1-0.64 22.272h-24.64a78.08 78.08 0 0 1 6.464-18.88zM422.464 556.928l5.12-12.672 5.12-12.672 4.8-12.608a31.68 31.68 0 0 0-4.8-5.184 9.472 9.472 0 0 0-5.12-1.728h-0.64c-1.728 0-3.072 0.384-4.48 0.704a22.208 22.208 0 0 0-5.824 4.48 86.976 86.976 0 0 0-11.008 20.48l4.48-22.592h-23.616L362.88 634.624l-1.024 6.208-2.432 12.288h25.408l9.216-46.208c4.096-22.272 8.576-37.376 12.672-45.248 3.072-5.76 6.144-8.512 9.6-8.512 1.664 0.064 3.712 1.024 6.144 3.776zM724.032 512.064a18.432 18.432 0 0 0-12.992 4.8c-4.096 3.072-8.96 9.28-14.656 18.112a39.296 39.296 0 0 0-4.096-17.408c-2.048-3.776-5.824-5.504-11.328-5.504a19.968 19.968 0 0 0-13.312 5.184c-4.48 3.392-8.96 9.536-14.144 17.728l4.16-19.84h-23.616l-24 121.216-1.024 5.824-1.024 5.504-1.344 5.44H632.32l13.696-70.592c2.048-10.56 4.416-17.728 7.168-22.592 3.136-4.416 5.824-6.784 8.576-6.784 1.664 0 3.072 1.024 4.096 3.072 0.704 2.048 1.344 5.12 1.024 8.576 0 2.048-0.704 6.144-2.048 12.352l-14.656 75.968h25.344l14.016-71.168c2.112-9.92 4.48-17.152 6.912-21.952 2.688-4.416 5.76-6.528 8.576-6.528 2.688 0 4.352 2.432 5.12 7.168 0.64 2.752 0 7.552-1.088 13.696l-15.36 78.72h25.344l17.152-86.656c3.456-18.816 4.416-32.512 2.048-41.408-2.496-8.832-6.912-12.928-14.208-12.928zM824.064 547.008c-0.704-11.328-3.136-20.16-7.552-25.984-4.096-6.208-10.944-8.96-20.544-8.96a26.304 26.304 0 0 0-10.24 1.728 46.72 46.72 0 0 0-21.184 18.112c-9.28 13.376-15.808 30.784-20.16 52.352-2.816 15.04-3.84 28.416-2.816 39.744 1.088 11.328 3.84 19.456 7.552 24.64 4.096 5.12 10.304 7.488 19.2 7.488a36.096 36.096 0 0 0 24.96-8.896c6.528-5.824 12.992-15.744 19.52-29.824l-24-4.736a30.848 30.848 0 0 1-3.072 5.12c-1.024 1.344-2.048 2.752-2.688 3.392-3.136 2.816-5.504 4.096-8.32 4.096-3.776 0-6.464-3.072-7.488-8.896a48.768 48.768 0 0 1 0.384-19.2H818.24l1.088-6.208c3.648-17.984 5.056-32.64 4.736-43.968z m-26.368 25.024h-25.024c1.984-8.576 4.096-14.4 6.528-18.816a22.4 22.4 0 0 1 6.528-8.256 9.536 9.536 0 0 1 5.12-1.664c3.456 0 5.888 2.048 7.168 6.528 1.024 4.352 1.024 11.84-0.32 22.208zM608 583.936l1.088-5.12 1.024-7.488a107.84 107.84 0 0 0 0-31.168c-0.384-1.408-0.384-2.752-0.768-4.096 0-0.768-0.32-1.088-0.32-1.344a31.36 31.36 0 0 0-1.024-3.776c-4.096-12.672-11.968-18.88-23.936-18.88a29.184 29.184 0 0 0-14.08 3.456 52.48 52.48 0 0 0-17.408 16.704 129.728 129.728 0 0 0-16.832 37.312c-1.344 4.48-2.432 8.96-3.392 13.76 0 0.32 0 0.64-0.384 1.344-4.032 21.248-4.032 38.336 0.384 52.032 0.32 1.088 0.64 2.048 0.96 2.752 0.704 1.664 1.408 3.456 2.432 4.8a21.12 21.12 0 0 0 19.904 11.968 29.888 29.888 0 0 0 14.4-3.392 48.256 48.256 0 0 0 17.792-16.832c9.216-13.312 16.064-30.4 20.16-51.264v-0.768z m-25.344 0c-2.432 12.672-5.504 22.272-8.96 27.776-1.344 2.048-2.432 3.84-3.776 5.12-2.432 2.432-4.416 3.84-7.232 3.84-3.392 0-5.76-3.136-7.168-8.96a94.72 94.72 0 0 1 1.792-27.392c2.752-12.032 5.44-21.184 9.28-27.008 1.024-2.112 2.432-3.84 3.456-5.184 2.368-2.368 4.736-3.776 7.488-3.776 3.392 0 5.504 3.072 6.848 8.576 1.344 6.208 0.704 15.104-1.728 27.008zM535.744 495.616l6.528-33.152H513.856l-12.992 66.752h-30.848l12.992-66.752h-28.032l-22.272 113.664-5.12 25.664-5.12 25.664-5.12 25.664h28.032l15.36-76.992h30.848l-15.04 76.992h28.096l27.712-140.672z" p-id="689" class="" fill="#1a2b8e"></path></svg>
