<?xml version="1.0" standalone="no"?><!DOCTYPE svg PUBLIC "-//W3C//DTD SVG 1.1//EN" "http://www.w3.org/Graphics/SVG/1.1/DTD/svg11.dtd"><svg t="1509673306103" class="icon" style="" viewBox="0 0 1024 1024" version="1.1" xmlns="http://www.w3.org/2000/svg" p-id="2429" xmlns:xlink="http://www.w3.org/1999/xlink" width="200" height="200"><defs><style type="text/css"></style></defs><path d="M235.693108 205.99844l-48.203901-48.203902c-13.315995-13.315995-34.887906-13.315995-48.203901 0-13.315995 13.315995-13.315995 34.887906 0 48.203902l48.203901 48.203901c13.449155 13.315995 34.887906 13.315995 48.203901 0 13.315995-13.315995 13.315995-34.887906 0-48.203901zM102.26684 427.576593H34.088947C15.180234 427.576593 0 442.756827 0 461.53238s15.180234 34.088947 34.088947 34.088946h68.177893c18.775553 0 34.088947-15.313394 34.088947-34.088946 0-18.775553-15.313394-33.955787-34.088947-33.955787zM511.20104 137.687386c18.775553 0 34.088947-15.313394 34.088947-34.088946V35.420546C545.289987 16.511834 529.976593 1.331599 511.20104 1.331599c-18.908713 0-34.088947 15.180234-34.088946 34.088947v68.177894c0.13316 18.775553 15.313394 34.088947 34.088946 34.088946zM545.289987 955.822107h-68.177893c-18.908713 0-34.088947 15.313394-34.088947 34.088946 0 18.908713 15.180234 34.088947 34.088947 34.088947h68.177893c18.775553 0 34.088947-15.180234 34.088947-34.088947 0-18.775553-15.313394-34.088947-34.088947-34.088946zM527.180234 208.661638c-167.914694 0-304.004161 136.089467-304.004161 304.004162s136.089467 304.004161 304.004161 304.004161c167.914694 0 304.004161-136.089467 304.004161-304.004161S695.228088 208.661638 527.180234 208.661638z m-49.80182 488.43069c-20.107152 0-33.955787-9.587516-33.955787-31.026268 0-26.898309 18.908713-73.104811 22.903511-82.692328l38.882705-99.071001c3.861638-10.120156-1.06528-15.180234-5.592718-15.180234-20.639792 0-47.404941 49.002861-57.391938 49.002861-3.861638 0-7.190637-3.861638-7.190637-7.323798 0-10.120156 24.50143-33.822627 31.825228-41.146423 22.237711-21.438752 51.26658-37.684265 83.624447-37.684266 23.968791 0 49.535501 14.647594 29.561508 69.243173l-40.081144 109.723797c-3.328999 8.522237-9.454356 22.504031-9.454356 31.558908 0 3.861638 2.130559 7.856437 6.657997 7.856437 16.644993 0 47.271782-47.804421 55.128219-47.804421 2.796359 0 6.657997 3.328999 6.657997 8.522236-0.13316 16.112354-65.248375 86.021326-121.575032 86.021327z m95.875162-285.494929c-22.903511 0-37.817425-15.180234-37.817425-38.350065 0-24.76775 21.172432-45.008062 45.673862-45.008062 22.237711 0 38.350065 15.180234 38.483225 38.350065-0.13316 25.96619-21.305592 45.008062-46.339662 45.008062zM988.579454 427.576593h-68.177894c-18.775553 0-34.088947 15.180234-34.088946 34.088947 0 18.775553 15.313394 34.088947 34.088946 34.088946h68.177894c18.908713 0 34.088947-15.313394 34.088947-34.088946 0-18.908713-15.180234-34.088947-34.088947-34.088947zM613.60104 853.422107H409.06736c-18.908713 0-34.088947 15.180234-34.088946 34.088946 0 18.775553 15.180234 34.088947 34.088946 34.088947h204.53368c18.908713 0 34.088947-15.313394 34.088947-34.088947 0-18.908713-15.180234-34.088947-34.088947-34.088946zM883.516255 157.661378c-13.449155-13.315995-34.887906-13.315995-48.203901 0L786.975293 205.99844c-13.315995 13.315995-13.315995 34.887906 0 48.203901 13.315995 13.315995 34.887906 13.315995 48.203901 0l48.203901-48.203901c13.449155-13.315995 13.449155-35.021066 0.13316-48.337062z" fill="#F7BA2A" p-id="2430"></path></svg>